<mxfile modified="2020-08-21T11:49:47.188Z" host="app.diagrams.net" agent="5.0 (Windows)" etag="2FfWd1djRezIazFfxJRn" version="13.6.4" type="github">
  <diagram id="gwVdG-KHAgIQCyrvABbW" name="Map">
    <mxGraphModel dx="2912" dy="2241" grid="1" gridSize="10" guides="1" tooltips="1" connect="1" arrows="1" fold="1" page="1" pageScale="1" pageWidth="850" pageHeight="1100" math="0" shadow="0">
      <root>
        <mxCell id="0" />
        <mxCell id="1" parent="0" />
        <mxCell id="i8JC3EVUsBnXg4Bw61Ws-23" value="&amp;nbsp;Path&amp;nbsp;" style="endArrow=open;endFill=1;endSize=12;html=1;" parent="1" edge="1">
          <mxGeometry width="160" relative="1" as="geometry">
            <mxPoint x="480" y="40.5" as="sourcePoint" />
            <mxPoint x="600" y="41" as="targetPoint" />
          </mxGeometry>
        </mxCell>
        <mxCell id="i8JC3EVUsBnXg4Bw61Ws-24" value="&amp;nbsp;Shortcut&amp;nbsp;" style="endArrow=open;endFill=1;endSize=12;html=1;dashed=1;" parent="1" edge="1">
          <mxGeometry width="160" relative="1" as="geometry">
            <mxPoint x="480" y="60.5" as="sourcePoint" />
            <mxPoint x="600" y="61" as="targetPoint" />
          </mxGeometry>
        </mxCell>
        <mxCell id="i8JC3EVUsBnXg4Bw61Ws-25" value="&amp;nbsp;One Of&amp;nbsp;" style="endArrow=open;endFill=1;html=1;shape=link;" parent="1" edge="1">
          <mxGeometry width="160" relative="1" as="geometry">
            <mxPoint x="480" y="81" as="sourcePoint" />
            <mxPoint x="600" y="81.5" as="targetPoint" />
          </mxGeometry>
        </mxCell>
        <mxCell id="hYFK_gtmnXKeufP--rRr-4" value="" style="whiteSpace=wrap;html=1;aspect=fixed;glass=0;comic=0;rounded=1;image=https://remnantfromtheashes.wiki.fextralife.com/file/Remnant-From-The-Ashes/simulacrum_crafting_material_remnant_from_the_ashes_wiki_guide_220px.png;fillColor=#ffe6cc;imageWidth=20;imageHeight=20;imageAspect=1;imageAlign=center;absoluteArcSize=0;rotation=0;strokeColor=#d79b00;shadow=0;" parent="1" vertex="1">
          <mxGeometry x="480" y="130" width="20" height="20" as="geometry" />
        </mxCell>
        <mxCell id="hYFK_gtmnXKeufP--rRr-15" value="" style="whiteSpace=wrap;html=1;aspect=fixed;glass=0;comic=0;rounded=1;image=https://remnantfromtheashes.wiki.fextralife.com/file/Remnant-From-The-Ashes/favicon-64.png;fillColor=#f8cecc;imageWidth=20;imageHeight=20;imageAspect=1;imageAlign=center;absoluteArcSize=0;rotation=0;strokeColor=#b85450;shadow=0;" parent="1" vertex="1">
          <mxGeometry x="480" y="100" width="20" height="20" as="geometry" />
        </mxCell>
        <mxCell id="hYFK_gtmnXKeufP--rRr-23" value="" style="strokeWidth=2;html=1;shape=mxgraph.flowchart.annotation_2;align=left;pointerEvents=1;rounded=1;shadow=0;glass=0;comic=0;fillColor=none;" parent="1" vertex="1">
          <mxGeometry x="-240" width="50" height="680" as="geometry" />
        </mxCell>
        <mxCell id="hYFK_gtmnXKeufP--rRr-26" value="&lt;div&gt;Corsus&lt;/div&gt;" style="text;html=1;strokeColor=none;fillColor=none;align=right;verticalAlign=middle;whiteSpace=wrap;rounded=0;shadow=0;glass=0;comic=0;" parent="1" vertex="1">
          <mxGeometry x="-290" y="330" width="40" height="20" as="geometry" />
        </mxCell>
        <mxCell id="hYFK_gtmnXKeufP--rRr-28" value="Simulacrum" style="text;html=1;strokeColor=none;fillColor=none;align=left;verticalAlign=middle;whiteSpace=wrap;rounded=0;shadow=0;glass=0;comic=0;" parent="1" vertex="1">
          <mxGeometry x="520" y="130" width="240" height="22" as="geometry" />
        </mxCell>
        <mxCell id="hYFK_gtmnXKeufP--rRr-30" value="Checkpoint" style="text;html=1;strokeColor=none;fillColor=none;align=left;verticalAlign=middle;whiteSpace=wrap;rounded=0;shadow=0;glass=0;comic=0;" parent="1" vertex="1">
          <mxGeometry x="520" y="100" width="240" height="23" as="geometry" />
        </mxCell>
        <mxCell id="hYFK_gtmnXKeufP--rRr-31" value="Legend" style="text;html=1;strokeColor=none;fillColor=none;align=left;verticalAlign=middle;whiteSpace=wrap;rounded=0;shadow=0;glass=0;comic=0;fontStyle=1;fontSize=18;" parent="1" vertex="1">
          <mxGeometry x="480" width="40" height="20" as="geometry" />
        </mxCell>
        <mxCell id="VroCm4Ln8UbIvC11AFh9-3" value="1" style="whiteSpace=wrap;html=1;aspect=fixed;glass=0;comic=0;rounded=1;fillColor=#e51400;imageWidth=20;imageHeight=20;imageAspect=1;imageAlign=center;absoluteArcSize=0;rotation=0;strokeColor=#B20000;shadow=0;fontColor=#ffffff;" parent="1" vertex="1">
          <mxGeometry x="480" y="340" width="20" height="20" as="geometry" />
        </mxCell>
        <mxCell id="VroCm4Ln8UbIvC11AFh9-4" value="The Iskal Queen" style="text;html=1;strokeColor=none;fillColor=none;align=left;verticalAlign=middle;whiteSpace=wrap;rounded=0;shadow=0;glass=0;comic=0;" parent="1" vertex="1">
          <mxGeometry x="520" y="370" width="240" height="22" as="geometry" />
        </mxCell>
        <mxCell id="VroCm4Ln8UbIvC11AFh9-7" value="2" style="whiteSpace=wrap;html=1;aspect=fixed;glass=0;comic=0;rounded=1;fillColor=#e51400;imageWidth=20;imageHeight=20;imageAspect=1;imageAlign=center;absoluteArcSize=0;rotation=0;strokeColor=#B20000;shadow=0;fontColor=#ffffff;" parent="1" vertex="1">
          <mxGeometry x="480" y="370" width="20" height="20" as="geometry" />
        </mxCell>
        <mxCell id="VroCm4Ln8UbIvC11AFh9-8" value="Canker Boss" style="text;html=1;strokeColor=none;fillColor=none;align=left;verticalAlign=middle;whiteSpace=wrap;rounded=0;shadow=0;glass=0;comic=0;" parent="1" vertex="1">
          <mxGeometry x="520" y="400" width="240" height="22" as="geometry" />
        </mxCell>
        <mxCell id="VroCm4Ln8UbIvC11AFh9-16" value="" style="whiteSpace=wrap;html=1;aspect=fixed;glass=0;comic=0;rounded=1;fillColor=#e1d5e7;imageWidth=20;imageHeight=20;imageAspect=1;imageAlign=center;absoluteArcSize=0;rotation=0;strokeColor=#9673a6;shadow=0;" parent="1" vertex="1">
          <mxGeometry x="480" y="190" width="20" height="20" as="geometry" />
        </mxCell>
        <mxCell id="VroCm4Ln8UbIvC11AFh9-17" value="Purple Item" style="text;html=1;strokeColor=none;fillColor=none;align=left;verticalAlign=middle;whiteSpace=wrap;rounded=0;shadow=0;glass=0;comic=0;" parent="1" vertex="1">
          <mxGeometry x="520" y="190" width="240" height="22" as="geometry" />
        </mxCell>
        <mxCell id="VroCm4Ln8UbIvC11AFh9-18" value="" style="whiteSpace=wrap;html=1;aspect=fixed;glass=0;comic=0;rounded=1;image=https://remnantfromtheashes.wiki.fextralife.com/file/Remnant-From-The-Ashes/trait_book_consumable_remnant_from_the_ashes_wiki_guide_220px.png;fillColor=#dae8fc;imageWidth=20;imageHeight=20;imageAspect=1;imageAlign=center;absoluteArcSize=0;rotation=0;strokeColor=#6c8ebf;shadow=0;" parent="1" vertex="1">
          <mxGeometry x="480" y="160" width="20" height="20" as="geometry" />
        </mxCell>
        <mxCell id="VroCm4Ln8UbIvC11AFh9-19" value="Tome of Knowledge" style="text;html=1;strokeColor=none;fillColor=none;align=left;verticalAlign=middle;whiteSpace=wrap;rounded=0;shadow=0;glass=0;comic=0;" parent="1" vertex="1">
          <mxGeometry x="520" y="160" width="240" height="23" as="geometry" />
        </mxCell>
        <mxCell id="VroCm4Ln8UbIvC11AFh9-43" value="1" style="whiteSpace=wrap;html=1;aspect=fixed;glass=0;comic=0;rounded=1;fillColor=#e1d5e7;imageWidth=20;imageHeight=20;imageAspect=1;imageAlign=center;absoluteArcSize=0;rotation=0;strokeColor=#9673a6;shadow=0;image=https://remnantfromtheashes.wiki.fextralife.com/file/Remnant-From-The-Ashes/akari_armor_remnant_from_the_ashes_wiki_guide_220px.png;fontStyle=0;fontColor=#FFFFFF;labelBackgroundColor=#00000060;" parent="1" vertex="1">
          <mxGeometry x="480" y="221" width="20" height="20" as="geometry" />
        </mxCell>
        <mxCell id="VroCm4Ln8UbIvC11AFh9-44" value="&lt;div&gt;Item&lt;/div&gt;" style="text;html=1;strokeColor=none;fillColor=none;align=left;verticalAlign=middle;whiteSpace=wrap;rounded=0;shadow=0;glass=0;comic=0;" parent="1" vertex="1">
          <mxGeometry x="520" y="221" width="240" height="22" as="geometry" />
        </mxCell>
        <mxCell id="VroCm4Ln8UbIvC11AFh9-47" value="3" style="whiteSpace=wrap;html=1;aspect=fixed;glass=0;comic=0;rounded=1;fillColor=#e51400;imageWidth=20;imageHeight=20;imageAspect=1;imageAlign=center;absoluteArcSize=0;rotation=0;strokeColor=#B20000;shadow=0;fontColor=#ffffff;" parent="1" vertex="1">
          <mxGeometry x="480" y="400" width="20" height="20" as="geometry" />
        </mxCell>
        <mxCell id="VroCm4Ln8UbIvC11AFh9-48" value="The Unclean One Boss" style="text;html=1;strokeColor=none;fillColor=none;align=left;verticalAlign=middle;whiteSpace=wrap;rounded=0;shadow=0;glass=0;comic=0;" parent="1" vertex="1">
          <mxGeometry x="520" y="340" width="240" height="22" as="geometry" />
        </mxCell>
        <mxCell id="VroCm4Ln8UbIvC11AFh9-81" value="4" style="whiteSpace=wrap;html=1;aspect=fixed;glass=0;comic=0;rounded=1;fillColor=#e51400;imageWidth=20;imageHeight=20;imageAspect=1;imageAlign=center;absoluteArcSize=0;rotation=0;strokeColor=#B20000;shadow=0;fontColor=#ffffff;" parent="1" vertex="1">
          <mxGeometry x="480" y="430" width="20" height="20" as="geometry" />
        </mxCell>
        <mxCell id="AbXr8sUoodpww_qAtCWm-9" value="" style="edgeStyle=orthogonalEdgeStyle;rounded=0;orthogonalLoop=1;jettySize=auto;html=1;entryX=0.5;entryY=0;entryDx=0;entryDy=0;" parent="1" source="iawqlcGQq6YOHTNZ5fg3-1" target="AbXr8sUoodpww_qAtCWm-2" edge="1">
          <mxGeometry relative="1" as="geometry" />
        </mxCell>
        <mxCell id="iawqlcGQq6YOHTNZ5fg3-1" value="&lt;div&gt;Undying Throne&lt;/div&gt;" style="rounded=1;whiteSpace=wrap;html=1;" parent="1" vertex="1">
          <mxGeometry width="120" height="40" as="geometry" />
        </mxCell>
        <mxCell id="ELnaeVgZSDdQy1VC78Dr-57" value="" style="edgeStyle=orthogonalEdgeStyle;shape=link;rounded=0;orthogonalLoop=1;jettySize=auto;html=1;" parent="1" edge="1">
          <mxGeometry relative="1" as="geometry">
            <mxPoint x="520" y="660" as="sourcePoint" />
            <mxPoint x="480" y="660" as="targetPoint" />
          </mxGeometry>
        </mxCell>
        <mxCell id="AbXr8sUoodpww_qAtCWm-7" value="" style="edgeStyle=orthogonalEdgeStyle;rounded=0;orthogonalLoop=1;jettySize=auto;html=1;" parent="1" source="AbXr8sUoodpww_qAtCWm-2" target="AbXr8sUoodpww_qAtCWm-3" edge="1">
          <mxGeometry relative="1" as="geometry" />
        </mxCell>
        <mxCell id="AbXr8sUoodpww_qAtCWm-13" value="" style="edgeStyle=orthogonalEdgeStyle;rounded=0;orthogonalLoop=1;jettySize=auto;html=1;" parent="1" source="AbXr8sUoodpww_qAtCWm-2" target="AbXr8sUoodpww_qAtCWm-10" edge="1">
          <mxGeometry relative="1" as="geometry" />
        </mxCell>
        <mxCell id="AbXr8sUoodpww_qAtCWm-2" value="The Fetid Glade" style="rounded=1;whiteSpace=wrap;html=1;" parent="1" vertex="1">
          <mxGeometry y="80" width="120" height="40" as="geometry" />
        </mxCell>
        <mxCell id="AbXr8sUoodpww_qAtCWm-12" value="" style="edgeStyle=orthogonalEdgeStyle;rounded=0;orthogonalLoop=1;jettySize=auto;html=1;" parent="1" source="AbXr8sUoodpww_qAtCWm-3" target="AbXr8sUoodpww_qAtCWm-11" edge="1">
          <mxGeometry relative="1" as="geometry" />
        </mxCell>
        <mxCell id="AbXr8sUoodpww_qAtCWm-3" value="The Shack" style="rounded=1;whiteSpace=wrap;html=1;" parent="1" vertex="1">
          <mxGeometry y="160" width="120" height="40" as="geometry" />
        </mxCell>
        <mxCell id="AbXr8sUoodpww_qAtCWm-4" value="" style="whiteSpace=wrap;html=1;aspect=fixed;glass=0;comic=0;rounded=1;image=https://remnantfromtheashes.wiki.fextralife.com/file/Remnant-From-The-Ashes/favicon-64.png;fillColor=#f8cecc;imageWidth=20;imageHeight=20;imageAspect=1;imageAlign=center;absoluteArcSize=0;rotation=0;strokeColor=#b85450;shadow=0;" parent="1" vertex="1">
          <mxGeometry y="120" width="20" height="20" as="geometry" />
        </mxCell>
        <mxCell id="AbXr8sUoodpww_qAtCWm-5" value="" style="whiteSpace=wrap;html=1;aspect=fixed;glass=0;comic=0;rounded=1;image=https://remnantfromtheashes.wiki.fextralife.com/file/Remnant-From-The-Ashes/simulacrum_crafting_material_remnant_from_the_ashes_wiki_guide_220px.png;fillColor=#ffe6cc;imageWidth=20;imageHeight=20;imageAspect=1;imageAlign=center;absoluteArcSize=0;rotation=0;strokeColor=#d79b00;shadow=0;" parent="1" vertex="1">
          <mxGeometry x="20" y="120" width="20" height="20" as="geometry" />
        </mxCell>
        <mxCell id="AbXr8sUoodpww_qAtCWm-6" value="" style="whiteSpace=wrap;html=1;aspect=fixed;glass=0;comic=0;rounded=1;fillColor=#e1d5e7;imageWidth=20;imageHeight=20;imageAspect=1;imageAlign=center;absoluteArcSize=0;rotation=0;strokeColor=#9673a6;shadow=0;" parent="1" vertex="1">
          <mxGeometry x="40" y="120" width="20" height="20" as="geometry" />
        </mxCell>
        <mxCell id="AbXr8sUoodpww_qAtCWm-10" value="Purple Portal?" style="rounded=1;whiteSpace=wrap;html=1;" parent="1" vertex="1">
          <mxGeometry x="-160" y="80" width="120" height="40" as="geometry" />
        </mxCell>
        <mxCell id="AbXr8sUoodpww_qAtCWm-19" value="" style="edgeStyle=orthogonalEdgeStyle;rounded=0;orthogonalLoop=1;jettySize=auto;html=1;" parent="1" source="AbXr8sUoodpww_qAtCWm-11" target="AbXr8sUoodpww_qAtCWm-18" edge="1">
          <mxGeometry relative="1" as="geometry" />
        </mxCell>
        <mxCell id="AbXr8sUoodpww_qAtCWm-11" value="The Mist Fen" style="rounded=1;whiteSpace=wrap;html=1;" parent="1" vertex="1">
          <mxGeometry y="240" width="120" height="40" as="geometry" />
        </mxCell>
        <mxCell id="AbXr8sUoodpww_qAtCWm-14" value="" style="whiteSpace=wrap;html=1;aspect=fixed;glass=0;comic=0;rounded=1;image=https://remnantfromtheashes.wiki.fextralife.com/file/Remnant-From-The-Ashes/favicon-64.png;fillColor=#f8cecc;imageWidth=20;imageHeight=20;imageAspect=1;imageAlign=center;absoluteArcSize=0;rotation=0;strokeColor=#b85450;shadow=0;" parent="1" vertex="1">
          <mxGeometry y="280" width="20" height="20" as="geometry" />
        </mxCell>
        <mxCell id="AbXr8sUoodpww_qAtCWm-15" value="The Mist Fen II" style="rounded=1;whiteSpace=wrap;html=1;" parent="1" vertex="1">
          <mxGeometry y="320" width="120" height="40" as="geometry" />
        </mxCell>
        <mxCell id="AbXr8sUoodpww_qAtCWm-16" value="" style="edgeStyle=orthogonalEdgeStyle;rounded=0;orthogonalLoop=1;jettySize=auto;html=1;dashed=1;exitX=0.5;exitY=0;exitDx=0;exitDy=0;entryX=0.5;entryY=1;entryDx=0;entryDy=0;" parent="1" source="AbXr8sUoodpww_qAtCWm-15" target="AbXr8sUoodpww_qAtCWm-11" edge="1">
          <mxGeometry relative="1" as="geometry">
            <mxPoint x="99" y="840" as="sourcePoint" />
            <mxPoint x="99" y="800" as="targetPoint" />
          </mxGeometry>
        </mxCell>
        <mxCell id="AbXr8sUoodpww_qAtCWm-17" value="1" style="whiteSpace=wrap;html=1;aspect=fixed;glass=0;comic=0;rounded=1;fillColor=#e51400;imageWidth=20;imageHeight=20;imageAspect=1;imageAlign=center;absoluteArcSize=0;rotation=0;strokeColor=#B20000;shadow=0;fontColor=#ffffff;" parent="1" vertex="1">
          <mxGeometry y="200" width="20" height="20" as="geometry" />
        </mxCell>
        <mxCell id="AbXr8sUoodpww_qAtCWm-24" value="" style="edgeStyle=orthogonalEdgeStyle;rounded=0;orthogonalLoop=1;jettySize=auto;html=1;" parent="1" source="AbXr8sUoodpww_qAtCWm-18" target="AbXr8sUoodpww_qAtCWm-23" edge="1">
          <mxGeometry relative="1" as="geometry" />
        </mxCell>
        <mxCell id="AbXr8sUoodpww_qAtCWm-18" value="The Drowned Trench" style="rounded=1;whiteSpace=wrap;html=1;" parent="1" vertex="1">
          <mxGeometry x="160" y="240" width="120" height="40" as="geometry" />
        </mxCell>
        <mxCell id="AbXr8sUoodpww_qAtCWm-20" value="" style="whiteSpace=wrap;html=1;aspect=fixed;glass=0;comic=0;rounded=1;image=https://remnantfromtheashes.wiki.fextralife.com/file/Remnant-From-The-Ashes/trait_book_consumable_remnant_from_the_ashes_wiki_guide_220px.png;fillColor=#dae8fc;imageWidth=20;imageHeight=20;imageAspect=1;imageAlign=center;absoluteArcSize=0;rotation=0;strokeColor=#6c8ebf;shadow=0;" parent="1" vertex="1">
          <mxGeometry x="160" y="280" width="20" height="20" as="geometry" />
        </mxCell>
        <mxCell id="AbXr8sUoodpww_qAtCWm-22" value="" style="whiteSpace=wrap;html=1;aspect=fixed;glass=0;comic=0;rounded=1;fillColor=#e1d5e7;imageWidth=20;imageHeight=20;imageAspect=1;imageAlign=center;absoluteArcSize=0;rotation=0;strokeColor=#9673a6;shadow=0;" parent="1" vertex="1">
          <mxGeometry x="180" y="280" width="20" height="20" as="geometry" />
        </mxCell>
        <mxCell id="AbXr8sUoodpww_qAtCWm-26" value="" style="edgeStyle=orthogonalEdgeStyle;rounded=0;orthogonalLoop=1;jettySize=auto;html=1;" parent="1" source="AbXr8sUoodpww_qAtCWm-23" target="AbXr8sUoodpww_qAtCWm-15" edge="1">
          <mxGeometry relative="1" as="geometry" />
        </mxCell>
        <mxCell id="AbXr8sUoodpww_qAtCWm-23" value="Mire Hollow" style="rounded=1;whiteSpace=wrap;html=1;" parent="1" vertex="1">
          <mxGeometry x="160" y="320" width="120" height="40" as="geometry" />
        </mxCell>
        <mxCell id="AbXr8sUoodpww_qAtCWm-25" value="2" style="whiteSpace=wrap;html=1;aspect=fixed;glass=0;comic=0;rounded=1;fillColor=#e51400;imageWidth=20;imageHeight=20;imageAspect=1;imageAlign=center;absoluteArcSize=0;rotation=0;strokeColor=#B20000;shadow=0;fontColor=#ffffff;" parent="1" vertex="1">
          <mxGeometry x="20" y="280" width="20" height="20" as="geometry" />
        </mxCell>
        <mxCell id="AbXr8sUoodpww_qAtCWm-29" value="3" style="whiteSpace=wrap;html=1;aspect=fixed;glass=0;comic=0;rounded=1;fillColor=#e51400;imageWidth=20;imageHeight=20;imageAspect=1;imageAlign=center;absoluteArcSize=0;rotation=0;strokeColor=#B20000;shadow=0;fontColor=#ffffff;" parent="1" vertex="1">
          <mxGeometry x="160" y="360" width="20" height="20" as="geometry" />
        </mxCell>
        <mxCell id="AbXr8sUoodpww_qAtCWm-30" value="" style="edgeStyle=orthogonalEdgeStyle;rounded=0;orthogonalLoop=1;jettySize=auto;html=1;exitX=0.5;exitY=1;exitDx=0;exitDy=0;" parent="1" source="AbXr8sUoodpww_qAtCWm-15" edge="1">
          <mxGeometry relative="1" as="geometry">
            <mxPoint x="229" y="280" as="sourcePoint" />
            <mxPoint x="60" y="400" as="targetPoint" />
          </mxGeometry>
        </mxCell>
        <mxCell id="AbXr8sUoodpww_qAtCWm-35" value="" style="edgeStyle=orthogonalEdgeStyle;rounded=0;orthogonalLoop=1;jettySize=auto;html=1;" parent="1" source="AbXr8sUoodpww_qAtCWm-32" target="AbXr8sUoodpww_qAtCWm-33" edge="1">
          <mxGeometry relative="1" as="geometry" />
        </mxCell>
        <mxCell id="AbXr8sUoodpww_qAtCWm-32" value="The Capillary" style="rounded=1;whiteSpace=wrap;html=1;" parent="1" vertex="1">
          <mxGeometry y="640" width="120" height="40" as="geometry" />
        </mxCell>
        <mxCell id="AbXr8sUoodpww_qAtCWm-33" value="Musk Forge" style="rounded=1;whiteSpace=wrap;html=1;" parent="1" vertex="1">
          <mxGeometry x="160" y="640" width="120" height="40" as="geometry" />
        </mxCell>
        <mxCell id="AbXr8sUoodpww_qAtCWm-34" value="The Thrall Boss" style="text;html=1;strokeColor=none;fillColor=none;align=left;verticalAlign=middle;whiteSpace=wrap;rounded=0;shadow=0;glass=0;comic=0;" parent="1" vertex="1">
          <mxGeometry x="520" y="490" width="240" height="22" as="geometry" />
        </mxCell>
        <mxCell id="AbXr8sUoodpww_qAtCWm-38" value="The Grotto" style="rounded=1;whiteSpace=wrap;html=1;" parent="1" vertex="1">
          <mxGeometry y="720" width="120" height="40" as="geometry" />
        </mxCell>
        <mxCell id="AbXr8sUoodpww_qAtCWm-39" value="&lt;div&gt;5&lt;/div&gt;" style="whiteSpace=wrap;html=1;aspect=fixed;glass=0;comic=0;rounded=1;fillColor=#e51400;imageWidth=20;imageHeight=20;imageAspect=1;imageAlign=center;absoluteArcSize=0;rotation=0;strokeColor=#B20000;shadow=0;fontColor=#ffffff;" parent="1" vertex="1">
          <mxGeometry x="480" y="460" width="20" height="20" as="geometry" />
        </mxCell>
        <mxCell id="AbXr8sUoodpww_qAtCWm-40" value="Ixillis Boss" style="text;html=1;strokeColor=none;fillColor=none;align=left;verticalAlign=middle;whiteSpace=wrap;rounded=0;shadow=0;glass=0;comic=0;" parent="1" vertex="1">
          <mxGeometry x="520" y="520" width="240" height="22" as="geometry" />
        </mxCell>
        <mxCell id="AbXr8sUoodpww_qAtCWm-41" value="&lt;div&gt;7&lt;/div&gt;" style="whiteSpace=wrap;html=1;aspect=fixed;glass=0;comic=0;rounded=1;fillColor=#e51400;imageWidth=20;imageHeight=20;imageAspect=1;imageAlign=center;absoluteArcSize=0;rotation=0;strokeColor=#B20000;shadow=0;fontColor=#ffffff;" parent="1" vertex="1">
          <mxGeometry y="760" width="20" height="20" as="geometry" />
        </mxCell>
        <mxCell id="AbXr8sUoodpww_qAtCWm-42" value="6" style="whiteSpace=wrap;html=1;aspect=fixed;glass=0;comic=0;rounded=1;fillColor=#e51400;imageWidth=20;imageHeight=20;imageAspect=1;imageAlign=center;absoluteArcSize=0;rotation=0;strokeColor=#B20000;shadow=0;fontColor=#ffffff;" parent="1" vertex="1">
          <mxGeometry x="160" y="680" width="20" height="20" as="geometry" />
        </mxCell>
        <mxCell id="AbXr8sUoodpww_qAtCWm-43" value="" style="edgeStyle=orthogonalEdgeStyle;rounded=0;orthogonalLoop=1;jettySize=auto;html=1;" parent="1" source="AbXr8sUoodpww_qAtCWm-44" target="AbXr8sUoodpww_qAtCWm-45" edge="1">
          <mxGeometry relative="1" as="geometry" />
        </mxCell>
        <mxCell id="AbXr8sUoodpww_qAtCWm-44" value="Needle Lair" style="rounded=1;whiteSpace=wrap;html=1;" parent="1" vertex="1">
          <mxGeometry y="560" width="120" height="40" as="geometry" />
        </mxCell>
        <mxCell id="AbXr8sUoodpww_qAtCWm-45" value="Throne of Barbs" style="rounded=1;whiteSpace=wrap;html=1;" parent="1" vertex="1">
          <mxGeometry x="160" y="560" width="120" height="40" as="geometry" />
        </mxCell>
        <mxCell id="AbXr8sUoodpww_qAtCWm-46" value="" style="edgeStyle=orthogonalEdgeStyle;rounded=0;orthogonalLoop=1;jettySize=auto;html=1;" parent="1" source="AbXr8sUoodpww_qAtCWm-47" target="AbXr8sUoodpww_qAtCWm-48" edge="1">
          <mxGeometry relative="1" as="geometry" />
        </mxCell>
        <mxCell id="AbXr8sUoodpww_qAtCWm-47" value="&lt;div&gt;Hall of Whispers&lt;/div&gt;" style="rounded=1;whiteSpace=wrap;html=1;" parent="1" vertex="1">
          <mxGeometry y="480" width="120" height="40" as="geometry" />
        </mxCell>
        <mxCell id="AbXr8sUoodpww_qAtCWm-48" value="Corrupted Sanctum" style="rounded=1;whiteSpace=wrap;html=1;" parent="1" vertex="1">
          <mxGeometry x="160" y="480" width="120" height="40" as="geometry" />
        </mxCell>
        <mxCell id="AbXr8sUoodpww_qAtCWm-49" value="6" style="whiteSpace=wrap;html=1;aspect=fixed;glass=0;comic=0;rounded=1;fillColor=#e51400;imageWidth=20;imageHeight=20;imageAspect=1;imageAlign=center;absoluteArcSize=0;rotation=0;strokeColor=#B20000;shadow=0;fontColor=#ffffff;" parent="1" vertex="1">
          <mxGeometry x="480" y="490" width="20" height="20" as="geometry" />
        </mxCell>
        <mxCell id="AbXr8sUoodpww_qAtCWm-50" value="7" style="whiteSpace=wrap;html=1;aspect=fixed;glass=0;comic=0;rounded=1;fillColor=#e51400;imageWidth=20;imageHeight=20;imageAspect=1;imageAlign=center;absoluteArcSize=0;rotation=0;strokeColor=#B20000;shadow=0;fontColor=#ffffff;" parent="1" vertex="1">
          <mxGeometry x="480" y="520" width="20" height="20" as="geometry" />
        </mxCell>
        <mxCell id="AbXr8sUoodpww_qAtCWm-51" value="&lt;div&gt;Dream Eater Boss&lt;/div&gt;" style="text;html=1;strokeColor=none;fillColor=none;align=left;verticalAlign=middle;whiteSpace=wrap;rounded=0;shadow=0;glass=0;comic=0;" parent="1" vertex="1">
          <mxGeometry x="520" y="430" width="240" height="22" as="geometry" />
        </mxCell>
        <mxCell id="AbXr8sUoodpww_qAtCWm-52" value="Barbed Terror Boss" style="text;html=1;strokeColor=none;fillColor=none;align=left;verticalAlign=middle;whiteSpace=wrap;rounded=0;shadow=0;glass=0;comic=0;" parent="1" vertex="1">
          <mxGeometry x="520" y="460" width="240" height="22" as="geometry" />
        </mxCell>
        <mxCell id="AbXr8sUoodpww_qAtCWm-53" value="5" style="whiteSpace=wrap;html=1;aspect=fixed;glass=0;comic=0;rounded=1;fillColor=#e51400;imageWidth=20;imageHeight=20;imageAspect=1;imageAlign=center;absoluteArcSize=0;rotation=0;strokeColor=#B20000;shadow=0;fontColor=#ffffff;" parent="1" vertex="1">
          <mxGeometry x="160" y="600" width="20" height="20" as="geometry" />
        </mxCell>
        <mxCell id="AbXr8sUoodpww_qAtCWm-54" value="4" style="whiteSpace=wrap;html=1;aspect=fixed;glass=0;comic=0;rounded=1;fillColor=#e51400;imageWidth=20;imageHeight=20;imageAspect=1;imageAlign=center;absoluteArcSize=0;rotation=0;strokeColor=#B20000;shadow=0;fontColor=#ffffff;" parent="1" vertex="1">
          <mxGeometry x="160" y="520" width="20" height="20" as="geometry" />
        </mxCell>
      </root>
    </mxGraphModel>
  </diagram>
</mxfile>
